<mxfile host="app.diagrams.net" modified="2022-06-07T18:52:03.769Z" agent="5.0 (X11; Linux x86_64) AppleWebKit/537.36 (KHTML, like Gecko) Chrome/102.0.5005.61 Safari/537.36" etag="xswawIrAFYBgXaIm1t4S" version="19.0.2" type="github" pages="5">
  <diagram id="cAMluVDB_Qh0k2FxmUku" name="Blocks">
    <mxGraphModel dx="1348" dy="773" grid="1" gridSize="10" guides="1" tooltips="1" connect="1" arrows="1" fold="1" page="1" pageScale="1" pageWidth="827" pageHeight="1169" math="0" shadow="0">
      <root>
        <mxCell id="0" />
        <mxCell id="1" parent="0" />
        <mxCell id="TI9a8coKgaSC17JsfnoU-1" value="Start" style="ellipse;whiteSpace=wrap;html=1;aspect=fixed;fillColor=#d5e8d4;strokeColor=#82b366;" vertex="1" parent="1">
          <mxGeometry x="50" y="40" width="80" height="80" as="geometry" />
        </mxCell>
        <mxCell id="TI9a8coKgaSC17JsfnoU-2" value="" style="rhombus;whiteSpace=wrap;html=1;fillColor=#dae8fc;strokeColor=#6c8ebf;" vertex="1" parent="1">
          <mxGeometry x="25" y="160" width="130" height="80" as="geometry" />
        </mxCell>
        <mxCell id="TI9a8coKgaSC17JsfnoU-4" value="" style="rounded=0;whiteSpace=wrap;html=1;fillColor=#fff2cc;strokeColor=#d6b656;" vertex="1" parent="1">
          <mxGeometry x="30" y="280" width="120" height="60" as="geometry" />
        </mxCell>
        <mxCell id="TI9a8coKgaSC17JsfnoU-5" value="" style="shape=parallelogram;perimeter=parallelogramPerimeter;whiteSpace=wrap;html=1;fixedSize=1;fillColor=#e1d5e7;strokeColor=#9673a6;" vertex="1" parent="1">
          <mxGeometry x="30" y="370" width="120" height="60" as="geometry" />
        </mxCell>
        <mxCell id="TI9a8coKgaSC17JsfnoU-6" value="Finish" style="ellipse;shape=doubleEllipse;whiteSpace=wrap;html=1;aspect=fixed;fillColor=#f8cecc;strokeColor=#b85450;" vertex="1" parent="1">
          <mxGeometry x="50" y="480" width="80" height="80" as="geometry" />
        </mxCell>
      </root>
    </mxGraphModel>
  </diagram>
  <diagram id="Oq6M6eDU7Jw8SkYnnVvi" name="car_inspection">
    <mxGraphModel dx="1248" dy="697" grid="1" gridSize="10" guides="1" tooltips="1" connect="1" arrows="1" fold="1" page="1" pageScale="1" pageWidth="827" pageHeight="1169" math="0" shadow="0">
      <root>
        <mxCell id="0" />
        <mxCell id="1" parent="0" />
        <mxCell id="nO85QABoGm3ZfFR71_Dg-4" value="" style="edgeStyle=orthogonalEdgeStyle;rounded=0;orthogonalLoop=1;jettySize=auto;html=1;" edge="1" parent="1" source="vBwJEOWNFHGxPRsx4D45-1" target="nO85QABoGm3ZfFR71_Dg-1">
          <mxGeometry relative="1" as="geometry" />
        </mxCell>
        <mxCell id="vBwJEOWNFHGxPRsx4D45-1" value="Start" style="ellipse;whiteSpace=wrap;html=1;aspect=fixed;fillColor=#d5e8d4;strokeColor=#82b366;" vertex="1" parent="1">
          <mxGeometry x="360" y="80" width="80" height="80" as="geometry" />
        </mxCell>
        <mxCell id="nO85QABoGm3ZfFR71_Dg-7" value="" style="edgeStyle=orthogonalEdgeStyle;rounded=0;orthogonalLoop=1;jettySize=auto;html=1;" edge="1" parent="1" source="nO85QABoGm3ZfFR71_Dg-1" target="nO85QABoGm3ZfFR71_Dg-5">
          <mxGeometry relative="1" as="geometry" />
        </mxCell>
        <mxCell id="nO85QABoGm3ZfFR71_Dg-1" value="Car inspection" style="rounded=0;whiteSpace=wrap;html=1;fillColor=#fff2cc;strokeColor=#d6b656;" vertex="1" parent="1">
          <mxGeometry x="340" y="190" width="120" height="60" as="geometry" />
        </mxCell>
        <mxCell id="xyFsvx5dnLR3t_SD0RGq-9" value="" style="edgeStyle=orthogonalEdgeStyle;rounded=0;orthogonalLoop=1;jettySize=auto;html=1;entryX=0.5;entryY=0;entryDx=0;entryDy=0;" edge="1" parent="1" source="nO85QABoGm3ZfFR71_Dg-5" target="7dUnQUsxnx8lC9SbZMGf-1">
          <mxGeometry relative="1" as="geometry">
            <mxPoint x="400" y="410" as="targetPoint" />
          </mxGeometry>
        </mxCell>
        <mxCell id="nO85QABoGm3ZfFR71_Dg-5" value="Bodywork check" style="rounded=0;whiteSpace=wrap;html=1;fillColor=#fff2cc;strokeColor=#d6b656;" vertex="1" parent="1">
          <mxGeometry x="340" y="270" width="120" height="60" as="geometry" />
        </mxCell>
        <mxCell id="xyFsvx5dnLR3t_SD0RGq-12" value="" style="edgeStyle=orthogonalEdgeStyle;rounded=0;orthogonalLoop=1;jettySize=auto;html=1;" edge="1" parent="1" source="7dUnQUsxnx8lC9SbZMGf-1">
          <mxGeometry relative="1" as="geometry">
            <mxPoint x="90" y="500" as="targetPoint" />
          </mxGeometry>
        </mxCell>
        <mxCell id="xyFsvx5dnLR3t_SD0RGq-13" value="&amp;nbsp;Yes" style="edgeLabel;html=1;align=center;verticalAlign=middle;resizable=0;points=[];" vertex="1" connectable="0" parent="xyFsvx5dnLR3t_SD0RGq-12">
          <mxGeometry x="-0.4522" y="-3" relative="1" as="geometry">
            <mxPoint x="11" y="3" as="offset" />
          </mxGeometry>
        </mxCell>
        <mxCell id="xyFsvx5dnLR3t_SD0RGq-15" value="" style="edgeStyle=orthogonalEdgeStyle;rounded=0;orthogonalLoop=1;jettySize=auto;html=1;" edge="1" parent="1" source="7dUnQUsxnx8lC9SbZMGf-1" target="xyFsvx5dnLR3t_SD0RGq-14">
          <mxGeometry relative="1" as="geometry" />
        </mxCell>
        <mxCell id="xyFsvx5dnLR3t_SD0RGq-17" value="No" style="edgeLabel;html=1;align=center;verticalAlign=middle;resizable=0;points=[];" vertex="1" connectable="0" parent="xyFsvx5dnLR3t_SD0RGq-15">
          <mxGeometry x="-0.3103" y="-3" relative="1" as="geometry">
            <mxPoint x="6" y="-3" as="offset" />
          </mxGeometry>
        </mxCell>
        <mxCell id="7dUnQUsxnx8lC9SbZMGf-1" value="&lt;br&gt;If the bodywork is &lt;br&gt;bad" style="rhombus;whiteSpace=wrap;html=1;fillColor=#dae8fc;strokeColor=#6c8ebf;" vertex="1" parent="1">
          <mxGeometry x="140" y="360" width="130" height="80" as="geometry" />
        </mxCell>
        <mxCell id="xyFsvx5dnLR3t_SD0RGq-1" value="Finish" style="ellipse;shape=doubleEllipse;whiteSpace=wrap;html=1;aspect=fixed;fillColor=#f8cecc;strokeColor=#b85450;" vertex="1" parent="1">
          <mxGeometry x="50" y="500" width="80" height="80" as="geometry" />
        </mxCell>
        <mxCell id="xyFsvx5dnLR3t_SD0RGq-23" value="" style="edgeStyle=orthogonalEdgeStyle;rounded=0;orthogonalLoop=1;jettySize=auto;html=1;" edge="1" parent="1" source="xyFsvx5dnLR3t_SD0RGq-14" target="xyFsvx5dnLR3t_SD0RGq-22">
          <mxGeometry relative="1" as="geometry" />
        </mxCell>
        <mxCell id="xyFsvx5dnLR3t_SD0RGq-14" value="Check the engine" style="rounded=0;whiteSpace=wrap;html=1;fillColor=#fff2cc;strokeColor=#d6b656;" vertex="1" parent="1">
          <mxGeometry x="340" y="370" width="120" height="60" as="geometry" />
        </mxCell>
        <mxCell id="xyFsvx5dnLR3t_SD0RGq-18" value="" style="edgeStyle=orthogonalEdgeStyle;rounded=0;orthogonalLoop=1;jettySize=auto;html=1;" edge="1" parent="1" source="xyFsvx5dnLR3t_SD0RGq-22" target="xyFsvx5dnLR3t_SD0RGq-1">
          <mxGeometry relative="1" as="geometry">
            <mxPoint x="289" y="600" as="targetPoint" />
          </mxGeometry>
        </mxCell>
        <mxCell id="xyFsvx5dnLR3t_SD0RGq-19" value="&amp;nbsp;Yes" style="edgeLabel;html=1;align=center;verticalAlign=middle;resizable=0;points=[];" vertex="1" connectable="0" parent="xyFsvx5dnLR3t_SD0RGq-18">
          <mxGeometry x="-0.4522" y="-3" relative="1" as="geometry">
            <mxPoint x="11" y="3" as="offset" />
          </mxGeometry>
        </mxCell>
        <mxCell id="xyFsvx5dnLR3t_SD0RGq-20" value="" style="edgeStyle=orthogonalEdgeStyle;rounded=0;orthogonalLoop=1;jettySize=auto;html=1;" edge="1" parent="1" source="xyFsvx5dnLR3t_SD0RGq-22">
          <mxGeometry relative="1" as="geometry">
            <mxPoint x="539" y="500" as="targetPoint" />
          </mxGeometry>
        </mxCell>
        <mxCell id="xyFsvx5dnLR3t_SD0RGq-21" value="No" style="edgeLabel;html=1;align=center;verticalAlign=middle;resizable=0;points=[];" vertex="1" connectable="0" parent="xyFsvx5dnLR3t_SD0RGq-20">
          <mxGeometry x="-0.3103" y="-3" relative="1" as="geometry">
            <mxPoint x="6" y="-3" as="offset" />
          </mxGeometry>
        </mxCell>
        <mxCell id="xyFsvx5dnLR3t_SD0RGq-22" value="&lt;div&gt;&lt;br&gt;&lt;/div&gt;&lt;div&gt;If the engine is bad&lt;/div&gt;&lt;div&gt;&lt;br&gt;&lt;/div&gt;" style="rhombus;whiteSpace=wrap;html=1;fillColor=#dae8fc;strokeColor=#6c8ebf;" vertex="1" parent="1">
          <mxGeometry x="335" y="460" width="130" height="80" as="geometry" />
        </mxCell>
        <mxCell id="xyFsvx5dnLR3t_SD0RGq-25" value="" style="edgeStyle=orthogonalEdgeStyle;rounded=0;orthogonalLoop=1;jettySize=auto;html=1;" edge="1" parent="1" source="xyFsvx5dnLR3t_SD0RGq-24">
          <mxGeometry relative="1" as="geometry">
            <mxPoint x="90" y="582" as="targetPoint" />
            <Array as="points">
              <mxPoint x="590" y="630" />
              <mxPoint x="90" y="630" />
            </Array>
          </mxGeometry>
        </mxCell>
        <mxCell id="xyFsvx5dnLR3t_SD0RGq-24" value="Buy a car" style="rounded=0;whiteSpace=wrap;html=1;fillColor=#fff2cc;strokeColor=#d6b656;" vertex="1" parent="1">
          <mxGeometry x="540" y="470" width="120" height="60" as="geometry" />
        </mxCell>
      </root>
    </mxGraphModel>
  </diagram>
  <diagram name="fridge_check" id="W7tF7aUU-za_hOTEnrlY">
    <mxGraphModel dx="1508" dy="842" grid="1" gridSize="10" guides="1" tooltips="1" connect="1" arrows="1" fold="1" page="1" pageScale="1" pageWidth="827" pageHeight="1169" math="0" shadow="0">
      <root>
        <mxCell id="tvgvq-FeYENDWpsqateT-0" />
        <mxCell id="tvgvq-FeYENDWpsqateT-1" parent="tvgvq-FeYENDWpsqateT-0" />
        <mxCell id="tvgvq-FeYENDWpsqateT-2" value="" style="edgeStyle=orthogonalEdgeStyle;rounded=0;orthogonalLoop=1;jettySize=auto;html=1;" edge="1" parent="tvgvq-FeYENDWpsqateT-1" source="tvgvq-FeYENDWpsqateT-3" target="tvgvq-FeYENDWpsqateT-5">
          <mxGeometry relative="1" as="geometry" />
        </mxCell>
        <mxCell id="tvgvq-FeYENDWpsqateT-3" value="Start" style="ellipse;whiteSpace=wrap;html=1;aspect=fixed;fillColor=#d5e8d4;strokeColor=#82b366;" vertex="1" parent="tvgvq-FeYENDWpsqateT-1">
          <mxGeometry x="360" y="80" width="80" height="80" as="geometry" />
        </mxCell>
        <mxCell id="tvgvq-FeYENDWpsqateT-4" value="" style="edgeStyle=orthogonalEdgeStyle;rounded=0;orthogonalLoop=1;jettySize=auto;html=1;entryX=0.5;entryY=0;entryDx=0;entryDy=0;" edge="1" parent="tvgvq-FeYENDWpsqateT-1" source="tvgvq-FeYENDWpsqateT-5" target="tvgvq-FeYENDWpsqateT-12">
          <mxGeometry relative="1" as="geometry">
            <mxPoint x="400" y="270" as="targetPoint" />
          </mxGeometry>
        </mxCell>
        <mxCell id="tvgvq-FeYENDWpsqateT-5" value="Checking the refrigerator" style="rounded=0;whiteSpace=wrap;html=1;fillColor=#fff2cc;strokeColor=#d6b656;" vertex="1" parent="tvgvq-FeYENDWpsqateT-1">
          <mxGeometry x="340" y="190" width="120" height="60" as="geometry" />
        </mxCell>
        <mxCell id="tvgvq-FeYENDWpsqateT-8" value="" style="edgeStyle=orthogonalEdgeStyle;rounded=0;orthogonalLoop=1;jettySize=auto;html=1;" edge="1" parent="tvgvq-FeYENDWpsqateT-1" source="tvgvq-FeYENDWpsqateT-12">
          <mxGeometry relative="1" as="geometry">
            <mxPoint x="90" y="500" as="targetPoint" />
          </mxGeometry>
        </mxCell>
        <mxCell id="tvgvq-FeYENDWpsqateT-9" value="&amp;nbsp;Yes" style="edgeLabel;html=1;align=center;verticalAlign=middle;resizable=0;points=[];" vertex="1" connectable="0" parent="tvgvq-FeYENDWpsqateT-8">
          <mxGeometry x="-0.4522" y="-3" relative="1" as="geometry">
            <mxPoint x="33" as="offset" />
          </mxGeometry>
        </mxCell>
        <mxCell id="tvgvq-FeYENDWpsqateT-10" value="" style="edgeStyle=orthogonalEdgeStyle;rounded=0;orthogonalLoop=1;jettySize=auto;html=1;" edge="1" parent="tvgvq-FeYENDWpsqateT-1" source="tvgvq-FeYENDWpsqateT-12" target="tvgvq-FeYENDWpsqateT-20">
          <mxGeometry relative="1" as="geometry">
            <mxPoint x="340" y="400" as="targetPoint" />
          </mxGeometry>
        </mxCell>
        <mxCell id="tvgvq-FeYENDWpsqateT-11" value="No" style="edgeLabel;html=1;align=center;verticalAlign=middle;resizable=0;points=[];" vertex="1" connectable="0" parent="tvgvq-FeYENDWpsqateT-10">
          <mxGeometry x="-0.3103" y="-3" relative="1" as="geometry">
            <mxPoint x="6" y="-3" as="offset" />
          </mxGeometry>
        </mxCell>
        <mxCell id="tvgvq-FeYENDWpsqateT-12" value="If the fridge is &lt;br&gt;empty" style="rhombus;whiteSpace=wrap;html=1;fillColor=#dae8fc;strokeColor=#6c8ebf;" vertex="1" parent="tvgvq-FeYENDWpsqateT-1">
          <mxGeometry x="150" y="300" width="130" height="80" as="geometry" />
        </mxCell>
        <mxCell id="tvgvq-FeYENDWpsqateT-13" value="Finish" style="ellipse;shape=doubleEllipse;whiteSpace=wrap;html=1;aspect=fixed;fillColor=#f8cecc;strokeColor=#b85450;" vertex="1" parent="tvgvq-FeYENDWpsqateT-1">
          <mxGeometry x="50" y="500" width="80" height="80" as="geometry" />
        </mxCell>
        <mxCell id="tvgvq-FeYENDWpsqateT-16" value="" style="edgeStyle=orthogonalEdgeStyle;rounded=0;orthogonalLoop=1;jettySize=auto;html=1;" edge="1" parent="tvgvq-FeYENDWpsqateT-1" source="tvgvq-FeYENDWpsqateT-20" target="tvgvq-FeYENDWpsqateT-13">
          <mxGeometry relative="1" as="geometry">
            <mxPoint x="289" y="600" as="targetPoint" />
            <Array as="points">
              <mxPoint x="233" y="500" />
              <mxPoint x="233" y="540" />
            </Array>
          </mxGeometry>
        </mxCell>
        <mxCell id="tvgvq-FeYENDWpsqateT-17" value="No" style="edgeLabel;html=1;align=center;verticalAlign=middle;resizable=0;points=[];" vertex="1" connectable="0" parent="tvgvq-FeYENDWpsqateT-16">
          <mxGeometry x="-0.4522" y="-3" relative="1" as="geometry">
            <mxPoint x="11" y="3" as="offset" />
          </mxGeometry>
        </mxCell>
        <mxCell id="tvgvq-FeYENDWpsqateT-18" value="" style="edgeStyle=orthogonalEdgeStyle;rounded=0;orthogonalLoop=1;jettySize=auto;html=1;" edge="1" parent="tvgvq-FeYENDWpsqateT-1" source="tvgvq-FeYENDWpsqateT-20">
          <mxGeometry relative="1" as="geometry">
            <mxPoint x="539" y="500" as="targetPoint" />
          </mxGeometry>
        </mxCell>
        <mxCell id="tvgvq-FeYENDWpsqateT-19" value="Yes" style="edgeLabel;html=1;align=center;verticalAlign=middle;resizable=0;points=[];" vertex="1" connectable="0" parent="tvgvq-FeYENDWpsqateT-18">
          <mxGeometry x="-0.3103" y="-3" relative="1" as="geometry">
            <mxPoint x="6" y="-3" as="offset" />
          </mxGeometry>
        </mxCell>
        <mxCell id="tvgvq-FeYENDWpsqateT-20" value="&lt;div&gt;If hungry&lt;br&gt;&lt;/div&gt;" style="rhombus;whiteSpace=wrap;html=1;fillColor=#dae8fc;strokeColor=#6c8ebf;" vertex="1" parent="tvgvq-FeYENDWpsqateT-1">
          <mxGeometry x="335" y="460" width="130" height="80" as="geometry" />
        </mxCell>
        <mxCell id="ocuiAO75ymfvYcN4-ZQk-4" value="" style="edgeStyle=orthogonalEdgeStyle;rounded=0;orthogonalLoop=1;jettySize=auto;html=1;entryX=1;entryY=0.5;entryDx=0;entryDy=0;" edge="1" parent="tvgvq-FeYENDWpsqateT-1" source="tvgvq-FeYENDWpsqateT-22" target="tvgvq-FeYENDWpsqateT-5">
          <mxGeometry relative="1" as="geometry">
            <mxPoint x="750" y="210" as="targetPoint" />
            <Array as="points">
              <mxPoint x="600" y="220" />
            </Array>
          </mxGeometry>
        </mxCell>
        <mxCell id="tvgvq-FeYENDWpsqateT-22" value="Eating food from the fridge" style="rounded=0;whiteSpace=wrap;html=1;fillColor=#fff2cc;strokeColor=#d6b656;" vertex="1" parent="tvgvq-FeYENDWpsqateT-1">
          <mxGeometry x="540" y="470" width="120" height="60" as="geometry" />
        </mxCell>
      </root>
    </mxGraphModel>
  </diagram>
  <diagram id="BDk_4pEXCnLvgUrGuNaO" name="10_numbers">
    <mxGraphModel dx="1586" dy="909" grid="1" gridSize="10" guides="1" tooltips="1" connect="1" arrows="1" fold="1" page="1" pageScale="1" pageWidth="827" pageHeight="1169" math="0" shadow="0">
      <root>
        <mxCell id="0" />
        <mxCell id="1" parent="0" />
        <mxCell id="CcIC2JiD9NDFA9ctSU8K-2" value="" style="edgeStyle=orthogonalEdgeStyle;rounded=0;orthogonalLoop=1;jettySize=auto;html=1;" edge="1" parent="1" source="uOZE1dpHIfqqI__qa73O-1" target="CcIC2JiD9NDFA9ctSU8K-1">
          <mxGeometry relative="1" as="geometry" />
        </mxCell>
        <mxCell id="uOZE1dpHIfqqI__qa73O-1" value="Start" style="ellipse;whiteSpace=wrap;html=1;aspect=fixed;fillColor=#d5e8d4;strokeColor=#82b366;" vertex="1" parent="1">
          <mxGeometry x="374" y="50" width="80" height="80" as="geometry" />
        </mxCell>
        <mxCell id="CcIC2JiD9NDFA9ctSU8K-4" value="" style="edgeStyle=orthogonalEdgeStyle;rounded=0;orthogonalLoop=1;jettySize=auto;html=1;" edge="1" parent="1" source="CcIC2JiD9NDFA9ctSU8K-1" target="CcIC2JiD9NDFA9ctSU8K-3">
          <mxGeometry relative="1" as="geometry" />
        </mxCell>
        <mxCell id="CcIC2JiD9NDFA9ctSU8K-1" value="Input N" style="shape=parallelogram;perimeter=parallelogramPerimeter;whiteSpace=wrap;html=1;fixedSize=1;fillColor=#e1d5e7;strokeColor=#9673a6;" vertex="1" parent="1">
          <mxGeometry x="354" y="150" width="120" height="60" as="geometry" />
        </mxCell>
        <mxCell id="4sKWsQ_1Z84M4ypPVjv3-2" value="" style="edgeStyle=orthogonalEdgeStyle;rounded=0;orthogonalLoop=1;jettySize=auto;html=1;" edge="1" parent="1" source="CcIC2JiD9NDFA9ctSU8K-3" target="4sKWsQ_1Z84M4ypPVjv3-1">
          <mxGeometry relative="1" as="geometry" />
        </mxCell>
        <mxCell id="CcIC2JiD9NDFA9ctSU8K-3" value="rez = N" style="whiteSpace=wrap;html=1;fillColor=#fff2cc;strokeColor=#d6b656;" vertex="1" parent="1">
          <mxGeometry x="354" y="240" width="120" height="60" as="geometry" />
        </mxCell>
        <mxCell id="QvpbT7XIwT72-HSu1SPV-2" value="" style="edgeStyle=orthogonalEdgeStyle;rounded=0;orthogonalLoop=1;jettySize=auto;html=1;" edge="1" parent="1" source="4sKWsQ_1Z84M4ypPVjv3-1" target="QvpbT7XIwT72-HSu1SPV-1">
          <mxGeometry relative="1" as="geometry" />
        </mxCell>
        <mxCell id="4sKWsQ_1Z84M4ypPVjv3-1" value="count = 0" style="whiteSpace=wrap;html=1;fillColor=#fff2cc;strokeColor=#d6b656;" vertex="1" parent="1">
          <mxGeometry x="354" y="320" width="120" height="60" as="geometry" />
        </mxCell>
        <mxCell id="iZfwgwLFXMj8leVBbpUo-2" value="" style="edgeStyle=orthogonalEdgeStyle;rounded=0;orthogonalLoop=1;jettySize=auto;html=1;entryX=0.5;entryY=0;entryDx=0;entryDy=0;" edge="1" parent="1" source="QvpbT7XIwT72-HSu1SPV-1" target="iZfwgwLFXMj8leVBbpUo-1">
          <mxGeometry relative="1" as="geometry">
            <mxPoint x="274" y="500" as="targetPoint" />
          </mxGeometry>
        </mxCell>
        <mxCell id="iZfwgwLFXMj8leVBbpUo-3" value="No" style="edgeLabel;html=1;align=center;verticalAlign=middle;resizable=0;points=[];" vertex="1" connectable="0" parent="iZfwgwLFXMj8leVBbpUo-2">
          <mxGeometry x="-0.598" y="2" relative="1" as="geometry">
            <mxPoint x="-3" y="-2" as="offset" />
          </mxGeometry>
        </mxCell>
        <mxCell id="iZfwgwLFXMj8leVBbpUo-5" value="" style="edgeStyle=orthogonalEdgeStyle;rounded=0;orthogonalLoop=1;jettySize=auto;html=1;" edge="1" parent="1" source="QvpbT7XIwT72-HSu1SPV-1" target="iZfwgwLFXMj8leVBbpUo-4">
          <mxGeometry relative="1" as="geometry">
            <Array as="points">
              <mxPoint x="510" y="620" />
              <mxPoint x="510" y="620" />
            </Array>
          </mxGeometry>
        </mxCell>
        <mxCell id="iZfwgwLFXMj8leVBbpUo-10" value="Yes" style="edgeLabel;html=1;align=center;verticalAlign=middle;resizable=0;points=[];" vertex="1" connectable="0" parent="iZfwgwLFXMj8leVBbpUo-5">
          <mxGeometry x="-0.2222" y="-3" relative="1" as="geometry">
            <mxPoint y="-3" as="offset" />
          </mxGeometry>
        </mxCell>
        <mxCell id="QvpbT7XIwT72-HSu1SPV-1" value="If count&amp;nbsp; &amp;lt;10" style="rhombus;whiteSpace=wrap;html=1;fillColor=#dae8fc;strokeColor=#6c8ebf;" vertex="1" parent="1">
          <mxGeometry x="354" y="580" width="120" height="80" as="geometry" />
        </mxCell>
        <mxCell id="iZfwgwLFXMj8leVBbpUo-1" value="Finish" style="ellipse;shape=doubleEllipse;whiteSpace=wrap;html=1;aspect=fixed;fillColor=#f8cecc;strokeColor=#b85450;" vertex="1" parent="1">
          <mxGeometry x="210" y="680" width="80" height="80" as="geometry" />
        </mxCell>
        <mxCell id="iZfwgwLFXMj8leVBbpUo-7" value="" style="edgeStyle=orthogonalEdgeStyle;rounded=0;orthogonalLoop=1;jettySize=auto;html=1;" edge="1" parent="1" source="iZfwgwLFXMj8leVBbpUo-4" target="iZfwgwLFXMj8leVBbpUo-6">
          <mxGeometry relative="1" as="geometry" />
        </mxCell>
        <mxCell id="iZfwgwLFXMj8leVBbpUo-4" value="Output rez" style="shape=parallelogram;perimeter=parallelogramPerimeter;whiteSpace=wrap;html=1;fixedSize=1;fillColor=#e1d5e7;strokeColor=#9673a6;" vertex="1" parent="1">
          <mxGeometry x="554" y="590" width="120" height="60" as="geometry" />
        </mxCell>
        <mxCell id="iZfwgwLFXMj8leVBbpUo-9" value="" style="edgeStyle=orthogonalEdgeStyle;rounded=0;orthogonalLoop=1;jettySize=auto;html=1;" edge="1" parent="1" source="iZfwgwLFXMj8leVBbpUo-6" target="iZfwgwLFXMj8leVBbpUo-8">
          <mxGeometry relative="1" as="geometry" />
        </mxCell>
        <mxCell id="iZfwgwLFXMj8leVBbpUo-6" value="count ++" style="whiteSpace=wrap;html=1;fillColor=#fff2cc;strokeColor=#d6b656;" vertex="1" parent="1">
          <mxGeometry x="554" y="490" width="120" height="60" as="geometry" />
        </mxCell>
        <mxCell id="iZfwgwLFXMj8leVBbpUo-11" value="" style="edgeStyle=orthogonalEdgeStyle;rounded=0;orthogonalLoop=1;jettySize=auto;html=1;" edge="1" parent="1" source="iZfwgwLFXMj8leVBbpUo-8">
          <mxGeometry relative="1" as="geometry">
            <mxPoint x="410" y="430" as="targetPoint" />
          </mxGeometry>
        </mxCell>
        <mxCell id="iZfwgwLFXMj8leVBbpUo-8" value="rez += N" style="whiteSpace=wrap;html=1;fillColor=#fff2cc;strokeColor=#d6b656;" vertex="1" parent="1">
          <mxGeometry x="554" y="400" width="120" height="60" as="geometry" />
        </mxCell>
      </root>
    </mxGraphModel>
  </diagram>
  <diagram name="prime_number" id="TjIsAuZayb2J6Vkw_In2">
    <mxGraphModel dx="930" dy="533" grid="1" gridSize="10" guides="1" tooltips="1" connect="1" arrows="1" fold="1" page="1" pageScale="1" pageWidth="827" pageHeight="1169" math="0" shadow="0">
      <root>
        <mxCell id="Y6OVv34yN1CDZV_1R5gC-0" />
        <mxCell id="Y6OVv34yN1CDZV_1R5gC-1" parent="Y6OVv34yN1CDZV_1R5gC-0" />
        <mxCell id="Y6OVv34yN1CDZV_1R5gC-2" value="" style="edgeStyle=orthogonalEdgeStyle;rounded=0;orthogonalLoop=1;jettySize=auto;html=1;" edge="1" parent="Y6OVv34yN1CDZV_1R5gC-1" source="Y6OVv34yN1CDZV_1R5gC-3" target="Y6OVv34yN1CDZV_1R5gC-5">
          <mxGeometry relative="1" as="geometry" />
        </mxCell>
        <mxCell id="Y6OVv34yN1CDZV_1R5gC-3" value="Start" style="ellipse;whiteSpace=wrap;html=1;aspect=fixed;fillColor=#d5e8d4;strokeColor=#82b366;" vertex="1" parent="Y6OVv34yN1CDZV_1R5gC-1">
          <mxGeometry x="374" y="50" width="80" height="80" as="geometry" />
        </mxCell>
        <mxCell id="Y6OVv34yN1CDZV_1R5gC-4" value="" style="edgeStyle=orthogonalEdgeStyle;rounded=0;orthogonalLoop=1;jettySize=auto;html=1;" edge="1" parent="Y6OVv34yN1CDZV_1R5gC-1" source="Y6OVv34yN1CDZV_1R5gC-5" target="Y6OVv34yN1CDZV_1R5gC-7">
          <mxGeometry relative="1" as="geometry" />
        </mxCell>
        <mxCell id="Y6OVv34yN1CDZV_1R5gC-5" value="Input N" style="shape=parallelogram;perimeter=parallelogramPerimeter;whiteSpace=wrap;html=1;fixedSize=1;fillColor=#e1d5e7;strokeColor=#9673a6;" vertex="1" parent="Y6OVv34yN1CDZV_1R5gC-1">
          <mxGeometry x="354" y="150" width="120" height="60" as="geometry" />
        </mxCell>
        <mxCell id="SftLA1MYOzQQtS0wkaU9-3" value="" style="edgeStyle=orthogonalEdgeStyle;rounded=0;orthogonalLoop=1;jettySize=auto;html=1;startArrow=none;" edge="1" parent="Y6OVv34yN1CDZV_1R5gC-1" target="SftLA1MYOzQQtS0wkaU9-2">
          <mxGeometry relative="1" as="geometry">
            <mxPoint x="420" y="380" as="sourcePoint" />
          </mxGeometry>
        </mxCell>
        <mxCell id="Y6OVv34yN1CDZV_1R5gC-7" value="i = 2" style="whiteSpace=wrap;html=1;fillColor=#fff2cc;strokeColor=#d6b656;" vertex="1" parent="Y6OVv34yN1CDZV_1R5gC-1">
          <mxGeometry x="354" y="240" width="120" height="60" as="geometry" />
        </mxCell>
        <mxCell id="SftLA1MYOzQQtS0wkaU9-8" value="" style="edgeStyle=orthogonalEdgeStyle;rounded=0;orthogonalLoop=1;jettySize=auto;html=1;" edge="1" parent="Y6OVv34yN1CDZV_1R5gC-1" source="Y6OVv34yN1CDZV_1R5gC-14" target="SftLA1MYOzQQtS0wkaU9-5">
          <mxGeometry relative="1" as="geometry" />
        </mxCell>
        <mxCell id="SftLA1MYOzQQtS0wkaU9-9" value="No" style="edgeLabel;html=1;align=center;verticalAlign=middle;resizable=0;points=[];" vertex="1" connectable="0" parent="SftLA1MYOzQQtS0wkaU9-8">
          <mxGeometry x="-0.2456" y="2" relative="1" as="geometry">
            <mxPoint y="-2" as="offset" />
          </mxGeometry>
        </mxCell>
        <mxCell id="SftLA1MYOzQQtS0wkaU9-16" value="Yes" style="edgeStyle=orthogonalEdgeStyle;rounded=0;orthogonalLoop=1;jettySize=auto;html=1;" edge="1" parent="Y6OVv34yN1CDZV_1R5gC-1" source="Y6OVv34yN1CDZV_1R5gC-14" target="SftLA1MYOzQQtS0wkaU9-13">
          <mxGeometry x="-0.3333" relative="1" as="geometry">
            <Array as="points">
              <mxPoint x="414" y="670" />
              <mxPoint x="414" y="670" />
            </Array>
            <mxPoint as="offset" />
          </mxGeometry>
        </mxCell>
        <mxCell id="Y6OVv34yN1CDZV_1R5gC-14" value="If N % I == 0" style="rhombus;whiteSpace=wrap;html=1;fillColor=#dae8fc;strokeColor=#6c8ebf;" vertex="1" parent="Y6OVv34yN1CDZV_1R5gC-1">
          <mxGeometry x="360" y="545" width="120" height="80" as="geometry" />
        </mxCell>
        <mxCell id="SftLA1MYOzQQtS0wkaU9-4" value="" style="edgeStyle=orthogonalEdgeStyle;rounded=0;orthogonalLoop=1;jettySize=auto;html=1;" edge="1" parent="Y6OVv34yN1CDZV_1R5gC-1" source="SftLA1MYOzQQtS0wkaU9-2" target="Y6OVv34yN1CDZV_1R5gC-14">
          <mxGeometry relative="1" as="geometry" />
        </mxCell>
        <mxCell id="SftLA1MYOzQQtS0wkaU9-2" value="If i &amp;lt;= √N and&amp;nbsp;&lt;br&gt;p == true" style="rhombus;whiteSpace=wrap;html=1;fillColor=#dae8fc;strokeColor=#6c8ebf;" vertex="1" parent="Y6OVv34yN1CDZV_1R5gC-1">
          <mxGeometry x="360" y="430" width="119" height="80" as="geometry" />
        </mxCell>
        <mxCell id="SftLA1MYOzQQtS0wkaU9-10" value="" style="edgeStyle=orthogonalEdgeStyle;rounded=0;orthogonalLoop=1;jettySize=auto;html=1;entryX=0;entryY=0.5;entryDx=0;entryDy=0;" edge="1" parent="Y6OVv34yN1CDZV_1R5gC-1" target="SftLA1MYOzQQtS0wkaU9-2">
          <mxGeometry relative="1" as="geometry">
            <mxPoint x="170" y="350" as="targetPoint" />
            <mxPoint x="140" y="550" as="sourcePoint" />
            <Array as="points">
              <mxPoint x="140" y="555" />
              <mxPoint x="140" y="470" />
            </Array>
          </mxGeometry>
        </mxCell>
        <mxCell id="SftLA1MYOzQQtS0wkaU9-5" value="i ++" style="whiteSpace=wrap;html=1;fillColor=#fff2cc;strokeColor=#d6b656;" vertex="1" parent="Y6OVv34yN1CDZV_1R5gC-1">
          <mxGeometry x="80" y="555" width="120" height="60" as="geometry" />
        </mxCell>
        <mxCell id="SftLA1MYOzQQtS0wkaU9-11" value="p = true" style="whiteSpace=wrap;html=1;fillColor=#fff2cc;strokeColor=#d6b656;" vertex="1" parent="Y6OVv34yN1CDZV_1R5gC-1">
          <mxGeometry x="354" y="320" width="120" height="60" as="geometry" />
        </mxCell>
        <mxCell id="SftLA1MYOzQQtS0wkaU9-12" value="" style="edgeStyle=orthogonalEdgeStyle;rounded=0;orthogonalLoop=1;jettySize=auto;html=1;endArrow=none;" edge="1" parent="Y6OVv34yN1CDZV_1R5gC-1" source="Y6OVv34yN1CDZV_1R5gC-7" target="SftLA1MYOzQQtS0wkaU9-11">
          <mxGeometry relative="1" as="geometry">
            <mxPoint x="414" y="300" as="sourcePoint" />
            <mxPoint x="414" y="370" as="targetPoint" />
          </mxGeometry>
        </mxCell>
        <mxCell id="SftLA1MYOzQQtS0wkaU9-19" value="" style="edgeStyle=orthogonalEdgeStyle;rounded=0;orthogonalLoop=1;jettySize=auto;html=1;" edge="1" parent="Y6OVv34yN1CDZV_1R5gC-1" source="SftLA1MYOzQQtS0wkaU9-13" target="SftLA1MYOzQQtS0wkaU9-18">
          <mxGeometry relative="1" as="geometry" />
        </mxCell>
        <mxCell id="SftLA1MYOzQQtS0wkaU9-13" value="p = false" style="whiteSpace=wrap;html=1;fillColor=#fff2cc;strokeColor=#d6b656;" vertex="1" parent="Y6OVv34yN1CDZV_1R5gC-1">
          <mxGeometry x="359" y="670" width="120" height="60" as="geometry" />
        </mxCell>
        <mxCell id="SftLA1MYOzQQtS0wkaU9-25" value="Yes" style="edgeStyle=orthogonalEdgeStyle;rounded=0;orthogonalLoop=1;jettySize=auto;html=1;" edge="1" parent="Y6OVv34yN1CDZV_1R5gC-1" source="SftLA1MYOzQQtS0wkaU9-18" target="SftLA1MYOzQQtS0wkaU9-24">
          <mxGeometry relative="1" as="geometry" />
        </mxCell>
        <mxCell id="SftLA1MYOzQQtS0wkaU9-27" value="No" style="edgeStyle=orthogonalEdgeStyle;rounded=0;orthogonalLoop=1;jettySize=auto;html=1;" edge="1" parent="Y6OVv34yN1CDZV_1R5gC-1" source="SftLA1MYOzQQtS0wkaU9-18" target="SftLA1MYOzQQtS0wkaU9-26">
          <mxGeometry relative="1" as="geometry" />
        </mxCell>
        <mxCell id="SftLA1MYOzQQtS0wkaU9-18" value="If p == true" style="rhombus;whiteSpace=wrap;html=1;fillColor=#dae8fc;strokeColor=#6c8ebf;" vertex="1" parent="Y6OVv34yN1CDZV_1R5gC-1">
          <mxGeometry x="360" y="770" width="120" height="80" as="geometry" />
        </mxCell>
        <mxCell id="SftLA1MYOzQQtS0wkaU9-24" value="Output &quot;Prime&lt;br&gt;number&quot;" style="shape=parallelogram;perimeter=parallelogramPerimeter;whiteSpace=wrap;html=1;fixedSize=1;fillColor=#e1d5e7;strokeColor=#9673a6;" vertex="1" parent="Y6OVv34yN1CDZV_1R5gC-1">
          <mxGeometry x="160" y="780" width="120" height="60" as="geometry" />
        </mxCell>
        <mxCell id="SftLA1MYOzQQtS0wkaU9-26" value="Output &lt;br&gt;&quot;Not a prime &lt;br&gt;number&quot;" style="shape=parallelogram;perimeter=parallelogramPerimeter;whiteSpace=wrap;html=1;fixedSize=1;fillColor=#e1d5e7;strokeColor=#9673a6;" vertex="1" parent="Y6OVv34yN1CDZV_1R5gC-1">
          <mxGeometry x="560" y="780" width="120" height="60" as="geometry" />
        </mxCell>
      </root>
    </mxGraphModel>
  </diagram>
</mxfile>
